<?xml version="1.0" encoding="iso-8859-1"?>
<!-- Generator: Adobe Illustrator 19.0.0, SVG Export Plug-In . SVG Version: 6.00 Build 0)  -->
<svg version="1.1" id="Layer_1" xmlns="http://www.w3.org/2000/svg" xmlns:xlink="http://www.w3.org/1999/xlink" x="0px" y="0px"
	 viewBox="0 0 297 297" style="enable-background:new 0 0 297 297;" xml:space="preserve">
<g>
	<path style="fill:#5D7486;" d="M274.81,51.775c-3.561-3.033-8.912-2.602-11.945,0.963l-4.672,5.491H38.807l-4.672-5.491
		c-3.033-3.565-8.382-3.995-11.945-0.963c-3.565,3.033-3.996,8.381-0.963,11.945l94.124,110.625v114.181
		c0,3.125,1.72,5.996,4.476,7.471c1.253,0.671,2.627,1.003,3.998,1.003c1.644,0,3.284-0.478,4.701-1.423l49.349-32.9
		c2.358-1.571,3.774-4.218,3.774-7.051v-81.281L275.773,63.72C278.806,60.155,278.375,54.807,274.81,51.775z"/>
	<path style="fill:#34495E;" d="M286.579,0H10.421c-4.68,0-8.474,3.794-8.474,8.474v49.381c0,4.68,3.794,8.474,8.474,8.474h276.157
		c4.68,0,8.474-3.794,8.474-8.474V8.474C295.053,3.794,291.259,0,286.579,0z"/>
	<path style="fill:#5D7486;" d="M38.807,58.229l-4.672-5.491c-3.033-3.565-8.382-3.995-11.945-0.963
		c-3.565,3.033-3.996,8.381-0.963,11.945l94.124,110.625v114.181c0,3.125,1.72,5.996,4.476,7.471
		c1.253,0.671,2.627,1.003,3.998,1.003c1.644,0,3.284-0.478,4.701-1.423l18.645-12.43V58.229H38.807z"/>
	<path style="fill:#475E6D;" d="M274.81,51.775c-3.561-3.033-8.912-2.602-11.945,0.963l-4.672,5.491H147.171v224.918l30.704-20.47
		c2.358-1.571,3.774-4.218,3.774-7.051v-81.281L275.773,63.72C278.806,60.155,278.375,54.807,274.81,51.775z"/>
	<path style="fill:#34495E;" d="M10.421,0c-4.68,0-8.474,3.794-8.474,8.474v49.381c0,4.68,3.794,8.474,8.474,8.474h136.75V0H10.421z
		"/>
	<path style="fill:#293E4F;" d="M286.579,0H147.171v66.329h139.408c4.68,0,8.474-3.794,8.474-8.474V8.474
		C295.053,3.794,291.259,0,286.579,0z"/>
</g>
<g>
</g>
<g>
</g>
<g>
</g>
<g>
</g>
<g>
</g>
<g>
</g>
<g>
</g>
<g>
</g>
<g>
</g>
<g>
</g>
<g>
</g>
<g>
</g>
<g>
</g>
<g>
</g>
<g>
</g>
</svg>
