<?xml version="1.0" encoding="iso-8859-1"?>
<!-- Generator: Adobe Illustrator 19.0.0, SVG Export Plug-In . SVG Version: 6.00 Build 0)  -->
<svg version="1.1" id="Layer_1" xmlns="http://www.w3.org/2000/svg" xmlns:xlink="http://www.w3.org/1999/xlink" x="0px" y="0px"
	 viewBox="0 0 512.21 512.21" style="enable-background:new 0 0 512.21 512.21;" xml:space="preserve">
<path style="fill:#F2F2F2;" d="M460.905,289.277c-130.133-99.2-260.267,99.2-390.4,0c0-86.4,0-173.867,0-260.267
	c130.133,99.2,260.267-99.2,390.4,0C460.905,115.41,460.905,201.81,460.905,289.277z"/>
<g>
	<path style="fill:#40596B;" d="M135.572,121.81c-21.333-3.2-43.733-10.667-65.067-27.733c0-21.333,0-43.733,0-65.067
		c21.333,16,43.733,24.533,65.067,27.733C135.572,78.077,135.572,99.41,135.572,121.81z"/>
	<path style="fill:#40596B;" d="M200.638,180.477c-21.333,5.333-43.733,8.533-65.067,5.333c0-21.333,0-43.733,0-65.067
		c21.333,3.2,43.733,0,65.067-5.333C200.638,137.81,200.638,159.143,200.638,180.477z"/>
	<path style="fill:#40596B;" d="M135.572,251.943c-21.333-3.2-43.733-10.667-65.067-27.733c0-21.333,0-43.733,0-65.067
		c21.333,16,43.733,24.533,65.067,27.733C135.572,208.21,135.572,229.543,135.572,251.943z"/>
	<path style="fill:#40596B;" d="M200.638,310.61c-21.333,5.333-43.733,8.533-65.067,5.333c0-21.333,0-43.733,0-65.067
		c21.333,3.2,43.733,0,65.067-5.333C200.638,267.943,200.638,289.277,200.638,310.61z"/>
	<path style="fill:#40596B;" d="M265.705,94.077c-21.333,8.533-43.733,16-65.067,22.4c0-21.333,0-43.733,0-65.067
		c21.333-5.333,43.733-13.867,65.067-22.4C265.705,50.343,265.705,71.677,265.705,94.077z"/>
	<path style="fill:#40596B;" d="M330.772,136.743c-21.333,5.333-43.733,13.867-65.067,22.4c0-21.333,0-43.733,0-65.067
		c21.333-8.533,43.733-17.067,65.067-22.4C330.772,94.077,330.772,115.41,330.772,136.743z"/>
	<path style="fill:#40596B;" d="M265.705,224.21c-21.333,8.533-43.733,16-65.067,22.4c0-21.333,0-43.733,0-65.067
		c21.333-5.333,43.733-13.867,65.067-22.4C265.705,180.477,265.705,201.81,265.705,224.21z"/>
	<path style="fill:#40596B;" d="M330.772,266.877c-21.333,5.333-43.733,13.867-65.067,22.4c0-21.333,0-43.733,0-65.067
		c21.333-8.533,43.733-16,65.067-22.4C330.772,224.21,330.772,245.543,330.772,266.877z"/>
	<path style="fill:#40596B;" d="M395.838,66.343c-21.333-3.2-43.733,0-65.067,5.333c0-21.333,0-43.733,0-65.067
		c21.333-5.333,43.733-8.533,65.067-5.333C395.838,22.61,395.838,45.01,395.838,66.343z"/>
	<path style="fill:#40596B;" d="M460.905,159.143c-21.333-16-43.733-24.533-65.067-27.733c0-21.333,0-43.733,0-65.067
		c21.333,3.2,43.733,10.667,65.067,27.733C460.905,115.41,460.905,136.743,460.905,159.143z"/>
	<path style="fill:#40596B;" d="M395.838,196.477c-21.333-3.2-43.733,0-65.067,5.333c0-21.333,0-43.733,0-65.067
		c21.333-5.333,43.733-8.533,65.067-5.333C395.838,152.743,395.838,175.143,395.838,196.477z"/>
	<path style="fill:#40596B;" d="M460.905,289.277c-21.333-16-43.733-24.533-65.067-27.733c0-21.333,0-43.733,0-65.067
		c21.333,3.2,43.733,10.667,65.067,27.733C460.905,245.543,460.905,266.877,460.905,289.277z"/>
</g>
<path style="opacity:0.1;fill:#231F20;enable-background:new    ;" d="M106.772,49.277C95.038,45.01,82.238,38.61,70.505,29.01
	c0,86.4,0,173.867,0,260.267c11.733,9.6,24.533,16,36.267,20.267V49.277z"/>
<path style="fill:#FF7058;" d="M71.572,512.21h-3.2c-9.6,0-17.067-7.467-17.067-17.067V17.277c0-9.6,7.467-17.067,17.067-17.067h3.2
	c9.6,0,17.067,7.467,17.067,17.067v477.867C88.638,504.743,81.172,512.21,71.572,512.21z"/>
<g>
</g>
<g>
</g>
<g>
</g>
<g>
</g>
<g>
</g>
<g>
</g>
<g>
</g>
<g>
</g>
<g>
</g>
<g>
</g>
<g>
</g>
<g>
</g>
<g>
</g>
<g>
</g>
<g>
</g>
</svg>
