<?xml version="1.0" encoding="iso-8859-1"?>
<!-- Generator: Adobe Illustrator 19.0.0, SVG Export Plug-In . SVG Version: 6.00 Build 0)  -->
<svg version="1.1" id="Capa_1" xmlns="http://www.w3.org/2000/svg" xmlns:xlink="http://www.w3.org/1999/xlink" x="0px" y="0px"
	 viewBox="0 0 468.299 468.299" style="enable-background:new 0 0 468.299 468.299;" xml:space="preserve">
<circle style="fill:#64798A;" cx="165.841" cy="144.297" r="144.297"/>
<path style="fill:#EBF0F3;" d="M165.836,269.34c-68.953,0-125.049-56.096-125.049-125.044S96.883,19.253,165.836,19.253
	c68.948,0,125.044,56.096,125.044,125.044S234.784,269.34,165.836,269.34z"/>
<path style="fill:#FCD462;" d="M446.754,123.409v332.402c0,6.897-5.591,12.488-12.488,12.488H206.328
	c-6.897,0-12.488-5.591-12.488-12.488V177.669h66.747v-66.748h173.679C441.163,110.921,446.754,116.512,446.754,123.409z"/>
<polygon style="fill:#DC8744;" points="260.588,110.921 260.588,177.669 193.841,177.669 "/>
<polygon style="fill:#64798A;" points="108.479,220.427 98.954,212.354 158.57,142.006 158.57,66.933 171.058,66.933
	171.058,146.586 "/>
<circle style="fill:#E1E6E9;" cx="165.841" cy="144.297" r="19.244"/>
<g>
	<rect x="160.347" y="32.999" style="fill:#3A556A;" width="10.996" height="10.996"/>
	<rect x="160.347" y="244.599" style="fill:#3A556A;" width="10.996" height="10.996"/>
	<rect x="54.537" y="138.796" style="fill:#3A556A;" width="10.996" height="10.996"/>
</g>
<g>
	<path style="fill:#FFFFFF;" d="M236.901,262.937c-1.128,0-2.256-0.402-3.159-1.226l-12.067-11.012
		c-1.909-1.744-2.043-4.701-0.299-6.616c1.744-1.909,4.701-2.049,6.616-0.299l8.61,7.854l28.482-31.201
		c1.738-1.909,4.713-2.049,6.616-0.299c1.909,1.744,2.043,4.707,0.299,6.616l-31.64,34.659
		C239.438,262.425,238.17,262.937,236.901,262.937z"/>
	<path style="fill:#FFFFFF;" d="M236.901,317.645c-1.165,0-2.293-0.433-3.159-1.226l-12.067-11.018
		c-1.909-1.744-2.043-4.707-0.299-6.616c1.744-1.909,4.713-2.049,6.616-0.299l8.61,7.86l28.482-31.201
		c1.738-1.909,4.713-2.049,6.616-0.299c1.909,1.744,2.043,4.707,0.299,6.616l-31.64,34.659c-0.835,0.915-2.006,1.463-3.244,1.518
		C237.042,317.645,236.975,317.645,236.901,317.645z"/>
	<path style="fill:#FFFFFF;" d="M236.901,372.352c-1.165,0-2.293-0.433-3.159-1.226l-12.067-11.018
		c-1.909-1.744-2.043-4.707-0.299-6.616c1.744-1.909,4.713-2.049,6.616-0.299l8.61,7.86l28.482-31.207
		c1.738-1.909,4.701-2.049,6.616-0.299c1.909,1.744,2.043,4.701,0.299,6.616l-31.64,34.665c-0.835,0.915-2.006,1.463-3.244,1.518
		C237.042,372.352,236.975,372.352,236.901,372.352z"/>
	<path style="fill:#FFFFFF;" d="M236.901,427.059c-1.165,0-2.293-0.433-3.159-1.226l-12.067-11.018
		c-1.909-1.744-2.043-4.707-0.299-6.616c1.744-1.909,4.713-2.049,6.616-0.299l8.61,7.86l28.482-31.207
		c1.738-1.909,4.701-2.049,6.616-0.299c1.909,1.744,2.043,4.701,0.299,6.616l-31.64,34.665c-0.835,0.915-2.006,1.463-3.244,1.518
		C237.042,427.059,236.975,427.059,236.901,427.059z"/>
	<rect x="299.523" y="237.643" style="fill:#FFFFFF;" width="120.907" height="12.488"/>
	<rect x="299.523" y="292.346" style="fill:#FFFFFF;" width="120.907" height="12.488"/>
	<rect x="299.523" y="347.042" style="fill:#FFFFFF;" width="120.907" height="12.488"/>
	<rect x="299.523" y="401.758" style="fill:#FFFFFF;" width="120.907" height="12.488"/>
</g>
<g>
</g>
<g>
</g>
<g>
</g>
<g>
</g>
<g>
</g>
<g>
</g>
<g>
</g>
<g>
</g>
<g>
</g>
<g>
</g>
<g>
</g>
<g>
</g>
<g>
</g>
<g>
</g>
<g>
</g>
</svg>
