<?xml version="1.0" encoding="iso-8859-1"?>
<!-- Generator: Adobe Illustrator 19.0.0, SVG Export Plug-In . SVG Version: 6.00 Build 0)  -->
<svg version="1.1" id="Layer_1" xmlns="http://www.w3.org/2000/svg" xmlns:xlink="http://www.w3.org/1999/xlink" x="0px" y="0px"
	 viewBox="0 0 512 512" style="enable-background:new 0 0 512 512;" xml:space="preserve">
<g>
	<path style="fill:#7383BF;" d="M494.345,88.276H17.655C7.91,88.276,0,96.177,0,105.931v300.138c0,9.746,7.91,17.655,17.655,17.655
		h70.621l17.655-88.276h300.138l17.655,88.276h70.621c9.746,0,17.655-7.91,17.655-17.655V105.931
		C512,96.177,504.09,88.276,494.345,88.276"/>
	<g>
		<path style="fill:#434C6D;" d="M0,300.138v105.931c0,9.746,7.91,17.655,17.655,17.655h70.621l17.655-88.276h300.138l17.655,88.276
			h70.621c9.746,0,17.655-7.91,17.655-17.655V300.138H0z"/>
		<path style="fill:#434C6D;" d="M388.414,220.69H123.586c-19.5,0-35.31-15.81-35.31-35.31V88.276h335.448v97.103
			C423.724,204.879,407.914,220.69,388.414,220.69"/>
	</g>
	<g>
		<path style="fill:#EDEBDA;" d="M430.611,512H81.392c-5.57,0-9.754-5.094-8.66-10.558l33.201-165.994h300.138l33.201,165.994
			C440.357,506.906,436.182,512,430.611,512"/>
		<path style="fill:#EDEBDA;" d="M397.241,88.276H114.759V8.828c0-4.873,3.955-8.828,8.828-8.828h264.828
			c4.873,0,8.828,3.955,8.828,8.828V88.276z"/>
	</g>
	<polygon style="fill:#A4E869;" points="282.483,185.379 388.414,185.379 388.414,132.414 282.483,132.414 	"/>
	<g>
		<path style="fill:#CEC9AE;" d="M326.621,388.414H185.379c-4.882,0-8.828-3.946-8.828-8.828c0-4.882,3.946-8.828,8.828-8.828
			h141.241c4.882,0,8.828,3.946,8.828,8.828C335.448,384.468,331.502,388.414,326.621,388.414"/>
		<path style="fill:#CEC9AE;" d="M353.103,432.552H158.897c-4.882,0-8.828-3.946-8.828-8.828c0-4.882,3.946-8.828,8.828-8.828
			h194.207c4.882,0,8.828,3.946,8.828,8.828C361.931,428.606,357.985,432.552,353.103,432.552"/>
		<path style="fill:#CEC9AE;" d="M379.586,476.69H132.414c-4.882,0-8.828-3.946-8.828-8.828c0-4.882,3.946-8.828,8.828-8.828
			h247.172c4.882,0,8.828,3.946,8.828,8.828C388.414,472.744,384.468,476.69,379.586,476.69"/>
	</g>
</g>
<g>
</g>
<g>
</g>
<g>
</g>
<g>
</g>
<g>
</g>
<g>
</g>
<g>
</g>
<g>
</g>
<g>
</g>
<g>
</g>
<g>
</g>
<g>
</g>
<g>
</g>
<g>
</g>
<g>
</g>
</svg>
