<?xml version="1.0" encoding="UTF-8" standalone="no"?>
<!-- Generator: Adobe Illustrator 19.0.0, SVG Export Plug-In . SVG Version: 6.00 Build 0)  -->

<svg
   version="1.1"
   id="Layer_1"
   x="0px"
   y="0px"
   viewBox="0 0 297 297"
   style="enable-background:new 0 0 297 297;"
   xml:space="preserve"
   sodipodi:docname="filter_reset.svg"
   inkscape:version="1.2.2 (732a01da63, 2022-12-09)"
   xmlns:inkscape="http://www.inkscape.org/namespaces/inkscape"
   xmlns:sodipodi="http://sodipodi.sourceforge.net/DTD/sodipodi-0.dtd"
   xmlns="http://www.w3.org/2000/svg"
   xmlns:svg="http://www.w3.org/2000/svg"><defs
   id="defs98" /><sodipodi:namedview
   id="namedview96"
   pagecolor="#ffffff"
   bordercolor="#000000"
   borderopacity="0.25"
   inkscape:showpageshadow="2"
   inkscape:pageopacity="0.0"
   inkscape:pagecheckerboard="0"
   inkscape:deskcolor="#d1d1d1"
   showgrid="false"
   inkscape:zoom="2.7407407"
   inkscape:cx="62.756757"
   inkscape:cy="148.68243"
   inkscape:window-width="1920"
   inkscape:window-height="1001"
   inkscape:window-x="-9"
   inkscape:window-y="-9"
   inkscape:window-maximized="1"
   inkscape:current-layer="Layer_1" />
<g
   id="g63">
	<path
   style="fill:#5D7486;"
   d="M274.81,51.775c-3.561-3.033-8.912-2.602-11.945,0.963l-4.672,5.491H38.807l-4.672-5.491   c-3.033-3.565-8.382-3.995-11.945-0.963c-3.565,3.033-3.996,8.381-0.963,11.945l94.124,110.625v114.181   c0,3.125,1.72,5.996,4.476,7.471c1.253,0.671,2.627,1.003,3.998,1.003c1.644,0,3.284-0.478,4.701-1.423l49.349-32.9   c2.358-1.571,3.774-4.218,3.774-7.051v-81.281L275.773,63.72C278.806,60.155,278.375,54.807,274.81,51.775z"
   id="path51" />
	<path
   style="fill:#34495E;"
   d="M286.579,0H10.421c-4.68,0-8.474,3.794-8.474,8.474v49.381c0,4.68,3.794,8.474,8.474,8.474h276.157   c4.68,0,8.474-3.794,8.474-8.474V8.474C295.053,3.794,291.259,0,286.579,0z"
   id="path53" />
	<path
   style="fill:#5D7486;"
   d="M38.807,58.229l-4.672-5.491c-3.033-3.565-8.382-3.995-11.945-0.963   c-3.565,3.033-3.996,8.381-0.963,11.945l94.124,110.625v114.181c0,3.125,1.72,5.996,4.476,7.471   c1.253,0.671,2.627,1.003,3.998,1.003c1.644,0,3.284-0.478,4.701-1.423l18.645-12.43V58.229H38.807z"
   id="path55" />
	<path
   style="fill:#475E6D;"
   d="M274.81,51.775c-3.561-3.033-8.912-2.602-11.945,0.963l-4.672,5.491H147.171v224.918l30.704-20.47   c2.358-1.571,3.774-4.218,3.774-7.051v-81.281L275.773,63.72C278.806,60.155,278.375,54.807,274.81,51.775z"
   id="path57" />
	<path
   style="fill:#34495E;"
   d="M10.421,0c-4.68,0-8.474,3.794-8.474,8.474v49.381c0,4.68,3.794,8.474,8.474,8.474h136.75V0H10.421z   "
   id="path59" />
	<path
   style="fill:#293E4F;"
   d="M286.579,0H147.171v66.329h139.408c4.68,0,8.474-3.794,8.474-8.474V8.474   C295.053,3.794,291.259,0,286.579,0z"
   id="path61" />
</g>
<g
   id="g65">
</g>
<g
   id="g67">
</g>
<g
   id="g69">
</g>
<g
   id="g71">
</g>
<g
   id="g73">
</g>
<g
   id="g75">
</g>
<g
   id="g77">
</g>
<g
   id="g79">
</g>
<g
   id="g81">
</g>
<g
   id="g83">
</g>
<g
   id="g85">
</g>
<g
   id="g87">
</g>
<g
   id="g89">
</g>
<g
   id="g91">
</g>
<g
   id="g93">
</g>
<rect
   style="fill:#ff0000;stroke-width:1.63035"
   id="rect310-5"
   width="398.10641"
   height="31.750458"
   x="-248.46501"
   y="-209.07578"
   rx="5.3575387"
   ry="0"
   transform="matrix(-0.8195308,0.57303513,-0.56967667,-0.8218689,0,0)"
   inkscape:transform-center-x="-4.0311633"
   inkscape:transform-center-y="-4.5205509" /></svg>
