<?xml version="1.0" encoding="iso-8859-1"?>
<!-- Generator: Adobe Illustrator 19.0.0, SVG Export Plug-In . SVG Version: 6.00 Build 0)  -->
<svg version="1.1" id="Layer_1" xmlns="http://www.w3.org/2000/svg" xmlns:xlink="http://www.w3.org/1999/xlink" x="0px" y="0px"
	 viewBox="0 0 511.999 511.999" style="enable-background:new 0 0 511.999 511.999;" xml:space="preserve">
<rect x="221.994" y="134.04" style="fill:#8B7E7F;" width="68.005" height="56.081"/>
<path style="fill:#463836;" d="M360.557,126.105c0,11.68-9.468,21.148-21.148,21.148H172.59c-11.68,0-21.148-9.468-21.148-21.148
	V27.509c0-11.68,9.468-21.148,21.148-21.148h166.819c11.68,0,21.148,9.468,21.148,21.148L360.557,126.105L360.557,126.105z"/>
<rect x="365.182" y="443.503" style="fill:#8B7E7F;" width="68.005" height="56.081"/>
<path style="fill:#463836;" d="M503.742,433.363c0,11.68-9.468,21.148-21.148,21.148H315.775c-11.68,0-21.148-9.468-21.148-21.148
	v-98.596c0-11.68,9.468-21.148,21.148-21.148h166.819c11.68,0,21.148,9.468,21.148,21.148L503.742,433.363L503.742,433.363z"/>
<rect x="78.816" y="443.503" style="fill:#8B7E7F;" width="68.005" height="56.081"/>
<path style="fill:#463836;" d="M217.372,437.767c0,11.68-9.468,21.148-21.148,21.148H29.405c-11.68,0-21.148-9.468-21.148-21.148
	v-98.596c0-11.68,9.468-21.148,21.148-21.148h166.819c11.68,0,21.148,9.468,21.148,21.148V437.767z"/>
<path d="M172.59,157.437h41.15v28.557h-15.38c-4.56,0-8.257,3.696-8.257,8.257s3.697,8.257,8.257,8.257h115.278
	c4.561,0,8.257-3.696,8.257-8.257s-3.696-8.257-8.257-8.257h-15.38v-28.557h41.15c16.215,0,29.405-13.19,29.405-29.405V29.436
	c0-16.215-13.19-29.405-29.405-29.405H172.59c-16.215,0-29.405,13.19-29.405,29.405v98.596
	C143.185,144.246,156.376,157.437,172.59,157.437z M281.745,185.994h-51.491v-28.557h51.491V185.994z M159.699,29.436
	c0-7.108,5.782-12.891,12.891-12.891h166.819c7.108,0,12.891,5.783,12.891,12.891v98.596c0,7.108-5.783,12.891-12.891,12.891H172.59
	c-7.109,0-12.891-5.783-12.891-12.891V29.436z"/>
<path d="M196.224,309.491H29.405C13.19,309.491,0,322.682,0,338.896v98.596c0,16.215,13.19,29.405,29.405,29.405h41.15v28.557
	h-15.38c-4.56,0-8.257,3.696-8.257,8.257c0,4.561,3.697,8.257,8.257,8.257h115.277c4.56,0,8.257-3.696,8.257-8.257
	c0-4.561-3.697-8.257-8.257-8.257h-15.379v-28.557h41.15c16.215,0,29.405-13.19,29.405-29.405v-98.596
	C225.629,322.682,212.437,309.491,196.224,309.491z M138.56,495.454H87.069v-28.557h51.491V495.454z M209.115,437.492
	c0,7.108-5.782,12.891-12.891,12.891H29.405c-7.109,0-12.891-5.783-12.891-12.891v-98.596c0-7.108,5.782-12.891,12.891-12.891
	h166.819c7.109,0,12.891,5.783,12.891,12.891V437.492z"/>
<path d="M482.595,309.491h-166.82c-16.215,0-29.405,13.19-29.405,29.405v98.596c0,16.215,13.19,29.405,29.405,29.405h41.15v28.557
	h-15.379c-4.561,0-8.257,3.696-8.257,8.257c0,4.561,3.696,8.257,8.257,8.257h115.277c4.561,0,8.257-3.696,8.257-8.257
	c0-4.561-3.696-8.257-8.257-8.257h-15.379v-28.557h41.15c16.215,0,29.405-13.19,29.405-29.405v-98.596
	C512,322.682,498.809,309.491,482.595,309.491z M424.931,495.454h-51.492v-28.557h51.492V495.454z M495.486,437.492
	c0,7.108-5.783,12.891-12.891,12.891h-166.82c-7.108,0-12.891-5.783-12.891-12.891v-98.596c0-7.108,5.783-12.891,12.891-12.891
	h166.819c7.108,0,12.891,5.783,12.891,12.891v98.596H495.486z"/>
<path d="M390.928,284.72c0,4.561,3.696,8.257,8.257,8.257c4.561,0,8.257-3.696,8.257-8.257v-28.72c0-4.561-3.696-8.257-8.257-8.257
	H264.257v-20.463c0-4.561-3.696-8.257-8.257-8.257c-4.56,0-8.257,3.696-8.257,8.257v20.463H112.814c-4.56,0-8.257,3.696-8.257,8.257
	v28.72c0,4.561,3.697,8.257,8.257,8.257c4.56,0,8.257-3.696,8.257-8.257v-20.463h269.857V284.72z"/>
<g>
</g>
<g>
</g>
<g>
</g>
<g>
</g>
<g>
</g>
<g>
</g>
<g>
</g>
<g>
</g>
<g>
</g>
<g>
</g>
<g>
</g>
<g>
</g>
<g>
</g>
<g>
</g>
<g>
</g>
</svg>
